name rise42.5664peak47.7979fall81.9185.mot
datacolumns 19
datarows 18
range 1.67166400000000 1.69999200000000
endheader
time	ground_force1_vx	ground_force1_vy	ground_force1_vz	ground_force1_px	ground_force1_py	ground_force1_pz	ground_force2_vx	ground_force2_vy	ground_force2_vz	ground_force2_px	ground_force2_py	ground_force2_pz	ground_torque1_x	ground_torque1_y	ground_torque1_z	ground_torque2_x	ground_torque2_y	ground_torque2_z	
1.67166400000000	55.05056900000000	759.71133699999996	56.00739200000000	0.24788500000000	0.00000000000000	0.10273800000000	1.73176300000000	21.13322500000000	1.53018600000000	0.00000000000000	0.00000000000000	0.00000000000000	0.00000000000000	15.65939600000000	0.00000000000000	0.00000000000000	0.15945500000000	0.00000000000000	
1.67332700000000	54.33490200000000	763.31413499999996	56.32636700000000	0.24726000000000	0.00000000000000	0.10277500000000	1.63681300000000	15.64764900000000	1.19338800000000	0.00000000000000	0.00000000000000	0.00000000000000	0.00000000000000	15.84129600000000	0.00000000000000	0.00000000000000	0.15580500000000	0.00000000000000	
1.67499600000000	53.61482400000000	766.75411599999995	56.63053800000000	0.24664200000000	0.00000000000000	0.10281200000000	1.45848200000000	10.81299000000000	0.87943300000000	0.00000000000000	0.00000000000000	0.00000000000000	0.00000000000000	16.01757700000000	0.00000000000000	0.00000000000000	0.14262500000000	0.00000000000000	
1.67666200000000	52.89126700000000	770.02862200000004	56.91974700000000	0.24602900000000	0.00000000000000	0.10284900000000	1.22407000000000	6.69216100000000	0.59722300000000	0.00000000000000	0.00000000000000	0.00000000000000	0.00000000000000	16.18802000000000	0.00000000000000	0.00000000000000	0.12268500000000	0.00000000000000	
1.67832500000000	52.16510400000000	773.13522699999999	57.19381700000000	0.24541900000000	0.00000000000000	0.10288700000000	0.95961900000000	3.31670400000000	0.35345100000000	0.00000000000000	0.00000000000000	0.00000000000000	0.00000000000000	16.35240300000000	0.00000000000000	0.00000000000000	0.09867200000000	0.00000000000000	
1.67999400000000	51.43715500000000	776.07174899999995	57.45255200000000	0.24480900000000	0.00000000000000	0.10292500000000	0.00000000000000	0.00000000000000	0.00000000000000	0.00000000000000	0.00000000000000	0.00000000000000	0.00000000000000	16.51050300000000	0.00000000000000	0.00000000000000	0.00000000000000	0.00000000000000	
1.68165900000000	50.70818600000000	778.83626400000003	57.69574700000000	0.24419900000000	0.00000000000000	0.10296300000000	0.00000000000000	0.00000000000000	0.00000000000000	0.00000000000000	0.00000000000000	0.00000000000000	0.00000000000000	16.66209700000000	0.00000000000000	0.00000000000000	0.00000000000000	0.00000000000000	
1.68332600000000	49.97891200000000	781.42711099999997	57.92318300000000	0.24358600000000	0.00000000000000	0.10300300000000	0.00000000000000	0.00000000000000	0.00000000000000	0.00000000000000	0.00000000000000	0.00000000000000	0.00000000000000	16.80696300000000	0.00000000000000	0.00000000000000	0.00000000000000	0.00000000000000	
1.68499400000000	49.24999800000000	783.84290999999996	58.13463200000000	0.24296900000000	0.00000000000000	0.10304200000000	0.00000000000000	0.00000000000000	0.00000000000000	0.00000000000000	0.00000000000000	0.00000000000000	0.00000000000000	16.94488100000000	0.00000000000000	0.00000000000000	0.00000000000000	0.00000000000000	
1.68665500000000	48.52206400000000	786.08256600000004	58.32986200000000	0.24234500000000	0.00000000000000	0.10308300000000	0.00000000000000	0.00000000000000	0.00000000000000	0.00000000000000	0.00000000000000	0.00000000000000	0.00000000000000	17.07563800000000	0.00000000000000	0.00000000000000	0.00000000000000	0.00000000000000	
1.68832900000000	47.79568700000000	788.14527899999996	58.50863800000000	0.24171400000000	0.00000000000000	0.10312400000000	0.00000000000000	0.00000000000000	0.00000000000000	0.00000000000000	0.00000000000000	0.00000000000000	0.00000000000000	17.19902500000000	0.00000000000000	0.00000000000000	0.00000000000000	0.00000000000000	
1.68999500000000	47.07139800000000	790.03055300000005	58.67072700000000	0.24107200000000	0.00000000000000	0.10316600000000	0.00000000000000	0.00000000000000	0.00000000000000	0.00000000000000	0.00000000000000	0.00000000000000	0.00000000000000	17.31484300000000	0.00000000000000	0.00000000000000	0.00000000000000	0.00000000000000	
1.69165800000000	46.34969600000000	791.73819700000001	58.81589800000000	0.24041900000000	0.00000000000000	0.10320900000000	0.00000000000000	0.00000000000000	0.00000000000000	0.00000000000000	0.00000000000000	0.00000000000000	0.00000000000000	17.42290100000000	0.00000000000000	0.00000000000000	0.00000000000000	0.00000000000000	
1.69333100000000	45.63103900000000	793.26833599999998	58.94393000000000	0.23975400000000	0.00000000000000	0.10325300000000	0.00000000000000	0.00000000000000	0.00000000000000	0.00000000000000	0.00000000000000	0.00000000000000	0.00000000000000	17.52302100000000	0.00000000000000	0.00000000000000	0.00000000000000	0.00000000000000	
1.69499500000000	44.91585500000000	794.62141099999997	59.05461000000000	0.23907500000000	0.00000000000000	0.10329700000000	0.00000000000000	0.00000000000000	0.00000000000000	0.00000000000000	0.00000000000000	0.00000000000000	0.00000000000000	17.61503600000000	0.00000000000000	0.00000000000000	0.00000000000000	0.00000000000000	
1.69666400000000	44.20454100000000	795.79818000000000	59.14774200000000	0.23838000000000	0.00000000000000	0.10334300000000	0.00000000000000	0.00000000000000	0.00000000000000	0.00000000000000	0.00000000000000	0.00000000000000	0.00000000000000	17.69879400000000	0.00000000000000	0.00000000000000	0.00000000000000	0.00000000000000	
1.69832900000000	43.49747000000000	796.79972599999996	59.22314500000000	0.23766800000000	0.00000000000000	0.10338900000000	0.00000000000000	0.00000000000000	0.00000000000000	0.00000000000000	0.00000000000000	0.00000000000000	0.00000000000000	17.77416100000000	0.00000000000000	0.00000000000000	0.00000000000000	0.00000000000000	
1.69999200000000	42.79498800000000	797.62745099999995	59.28066200000000	0.23693900000000	0.00000000000000	0.10343600000000	0.00000000000000	0.00000000000000	0.00000000000000	0.00000000000000	0.00000000000000	0.00000000000000	0.00000000000000	17.84101800000000	0.00000000000000	0.00000000000000	0.00000000000000	0.00000000000000	
